<svg xmlns="http://www.w3.org/2000/svg" aria-hidden="true" >
<defs>
<symbol id="icon-facebook" viewBox="0 0 32 32"><path d="M21.329 5.313h2.921V.225C23.746.156 22.013 0 19.994 0c-4.212 0-7.097 2.649-7.097 7.519V12H8.249v5.688h4.648V32h5.699V17.689h4.46l.708-5.688h-5.169V8.082c.001-1.644.444-2.769 2.735-2.769z"/></symbol>
<symbol id="icon-instagram" viewBox="0 0 32 32"><path d="M31.969 9.408c-.075-1.7-.35-2.869-.744-3.882a7.803 7.803 0 0 0-1.85-2.838A7.867 7.867 0 0 0 26.543.844C25.524.45 24.361.175 22.661.1 20.948.019 20.404 0 16.06 0s-4.888.019-6.595.094c-1.7.075-2.869.35-3.882.744a7.803 7.803 0 0 0-2.838 1.85A7.867 7.867 0 0 0 .901 5.52C.507 6.539.232 7.702.157 9.402c-.081 1.713-.1 2.257-.1 6.601s.019 4.888.094 6.595c.075 1.7.35 2.869.744 3.882a7.895 7.895 0 0 0 1.85 2.838 7.867 7.867 0 0 0 2.832 1.844c1.019.394 2.182.669 3.882.744 1.706.075 2.25.094 6.595.094s4.888-.018 6.595-.094c1.7-.075 2.869-.35 3.882-.744a8.181 8.181 0 0 0 4.682-4.682c.394-1.019.669-2.182.744-3.882.075-1.707.094-2.251.094-6.595s-.006-4.888-.081-6.595zm-2.882 13.065c-.069 1.563-.331 2.407-.55 2.969a5.307 5.307 0 0 1-3.038 3.038c-.563.219-1.413.481-2.969.55-1.688.075-2.194.094-6.464.094s-4.782-.018-6.464-.094c-1.563-.069-2.407-.331-2.969-.55a4.926 4.926 0 0 1-1.838-1.194 4.974 4.974 0 0 1-1.194-1.838c-.219-.563-.481-1.413-.55-2.969-.075-1.688-.094-2.194-.094-6.464s.019-4.782.094-6.464c.069-1.563.331-2.407.55-2.969a4.868 4.868 0 0 1 1.2-1.838A4.974 4.974 0 0 1 6.639 3.55c.563-.219 1.413-.481 2.969-.55 1.688-.075 2.194-.094 6.464-.094 4.276 0 4.782.019 6.464.094 1.563.069 2.407.331 2.969.55a4.914 4.914 0 0 1 1.838 1.194 4.974 4.974 0 0 1 1.194 1.838c.219.563.481 1.413.55 2.969.075 1.688.094 2.194.094 6.464s-.019 4.77-.094 6.457z"/><path d="M16.059 7.782c-4.538 0-8.22 3.682-8.22 8.22s3.682 8.22 8.22 8.22 8.22-3.682 8.22-8.22-3.682-8.22-8.22-8.22zm0 13.553a5.333 5.333 0 0 1 0-10.664 5.333 5.333 0 0 1 0 10.664zM26.524 7.457a1.919 1.919 0 1 1-3.838 0 1.919 1.919 0 0 1 3.838 0z"/></symbol>
<symbol id="icon-phone" viewBox="0 0 24 24"><path d="M15.05 5A5 5 0 0 1 19 8.95M15.05 1A9 9 0 0 1 23 8.94m-1 7.98v3a2 2 0 0 1-2.18 2 19.79 19.79 0 0 1-8.63-3.07 19.5 19.5 0 0 1-6-6 19.79 19.79 0 0 1-3.07-8.67A2 2 0 0 1 4.11 2h3a2 2 0 0 1 2 1.72 12.84 12.84 0 0 0 .7 2.81 2 2 0 0 1-.45 2.11L8.09 9.91a16 16 0 0 0 6 6l1.27-1.27a2 2 0 0 1 2.11-.45 12.84 12.84 0 0 0 2.81.7A2 2 0 0 1 22 16.92z"></path></symbol>
<symbol id="icon-barbell" viewBox="0 0 30 30"><path d="M215 270 c-4 -6 5 -22 20 -36 20 -18 30 -22 35 -14 9 14 1 50 -10 50 -5 0 -15 3 -23 6 -8 3 -18 0 -22 -6z"/>
<path d="M164 259 c-4 -7 1 -16 10 -21 26 -14 19 -31 -34 -83 -49 -48 -50 -48 -70 -30 -14 12 -24 15 -31 8 -6 -6 5 -26 36 -58 34 -38 48 -46 57 -37 9 9 7 16 -7 32 -18 20 -18 21 30 70 53 54 68 60 84 33 9 -16 12 -16 20 -3 8 11 0 25 -31 57 -45 46 -53 50 -64 32z"/>
<path d="M28 85 c-12 -13 6 -54 25 -59 35 -9 44 11 17 39 -24 25 -32 29 -42 20z"/></symbol>
<symbol id="close-button"  viewBox="0 0 32 32"><path d="M0 16q0 3.264 1.28 6.208t3.392 5.12 5.12 3.424T16 32t6.208-1.248 5.12-3.424 3.392-5.12T32 16t-1.28-6.208-3.392-5.12T22.24 1.28 16 0q-3.264 0-6.208 1.28t-5.12 3.392-3.392 5.12T0 16zm4 0q0-3.264 1.6-6.016t4.384-4.352T16 4t6.016 1.632T26.4 9.984 28 16t-1.6 6.048-4.384 4.352T16 28t-6.016-1.6T5.6 22.048 4 16zm5.76 4.256q0 .832.576 1.408t1.44.608 1.408-.608L16 18.848l2.816 2.816q.576.608 1.408.608t1.44-.608.576-1.408-.576-1.408L18.816 16l2.848-2.816q.576-.576.576-1.408t-.576-1.408-1.44-.608-1.408.608L16 13.184l-2.816-2.816q-.576-.608-1.408-.608t-1.44.608-.576 1.408.576 1.408L13.184 16l-2.848 2.848q-.576.576-.576 1.408z"/></symbol>

<symbol id="subscribe-button"> <path  d="M24 2 0 13.25l7.67 2.367L19.5 6.375l-8.998 10.116.007.003-.009-.003V22l4.301-4.182 5.45 1.682L24 2Z"/> </symbol>
<symbol id="input-phone"> <svg  ><path  d="m11.726 8.865-1.838-.21a1.44 1.44 0 0 0-1.187.413L7.37 10.399A10.888 10.888 0 0 1 2.6 5.63l1.34-1.339a1.44 1.44 0 0 0 .412-1.186l-.21-1.824A1.448 1.448 0 0 0 2.702 0H1.45C.632 0-.048.68.003 1.498c.383 6.18 5.326 11.116 11.499 11.5.818.05 1.498-.63 1.498-1.448v-1.252a1.434 1.434 0 0 0-1.274-1.433Z"/></svg> </symbol>
<symbol id="input-name"> <svg  ><path  d="M6 6a3 3 0 1 0 0-6 3 3 0 1 0 0 6Zm0 1.5c-2.002 0-6 1.005-6 3v.75c0 .412.338.75.75.75h10.5c.412 0 .75-.338.75-.75v-.75c0-1.995-3.998-3-6-3Z"/></svg></symbol> 
<symbol id="input-email" ><path  d="M14 0H2C1.175 0 .507.675.507 1.5l-.007 9c0 .825.675 1.5 1.5 1.5h12c.825 0 1.5-.675 1.5-1.5v-9C15.5.675 14.825 0 14 0Zm-.3 3.188L8.398 6.502a.759.759 0 0 1-.795 0L2.3 3.187a.637.637 0 1 1 .675-1.08L8 5.25l5.025-3.143a.637.637 0 1 1 .675 1.08Z"/> </symbol>
<symbol id="check-input"><svg  fill="none"><path fill="#FFF" d="M8.446.255A.917.917 0 0 1 10 .901a.928.928 0 0 1-.242.649L4.864 7.704a.92.92 0 0 1-1.019.229.92.92 0 0 1-.306-.204L.293 4.466a.925.925 0 0 1-.226-1.024.925.925 0 0 1 .87-.578.916.916 0 0 1 .656.294L4.162 5.74 8.422.282a.329.329 0 0 1 .025-.027h-.001Z"/></svg></symbol>
<symbol id="menu" viewBox="0 0 32 32"> <path d="M12 2h20v4h-20v-4zM12 14h20v4h-20v-4zM12 26h20v4h-20v-4zM0 4c0-2.209 1.791-4 4-4s4 1.791 4 4c0 2.209-1.791 4-4 4s-4-1.791-4-4zM0 16c0-2.209 1.791-4 4-4s4 1.791 4 4c0 2.209-1.791 4-4 4s-4-1.791-4-4zM0 28c0-2.209 1.791-4 4-4s4 1.791 4 4c0 2.209-1.791 4-4 4s-4-1.791-4-4z"></path></symbol>
<symbol id="icon-circle-up" viewBox="0 0 32 32">
<path d="M0 16c0 8.837 7.163 16 16 16s16-7.163 16-16-7.163-16-16-16-16 7.163-16 16zM29 16c0 7.18-5.82 13-13 13s-13-5.82-13-13 5.82-13 13-13 13 5.82 13 13z"></path>
<path d="M22.086 20.914l2.829-2.829-8.914-8.914-8.914 8.914 2.828 2.828 6.086-6.086z"></path>
</symbol>
</defs></svg>
